<?xml version="1.0" encoding="UTF-8"?>
<!-- Generated by Pixelmator Pro 2.4.1 -->
<svg width="1280" height="640" viewBox="0 0 1280 640" xmlns="http://www.w3.org/2000/svg" xmlns:xlink="http://www.w3.org/1999/xlink">
    <g id="var-dump">
        <g id="Group">
            <path id="Path" fill="#37528b" fill-rule="evenodd" stroke="none" d="M 115.599998 257.899994 L 248.210266 257.899994 L 248.210266 383 L 115.599998 383 Z"/>
            <path id="path1" fill="#37528b" fill-rule="evenodd" stroke="none" d="M 327.819336 378.279205 L 278.680573 261.118683 L 314.300812 261.118683 L 345.629456 336.436188 L 376.958069 261.118683 L 412.14917 261.118683 L 363.224976 378.279205 L 327.819336 378.279205 Z"/>
            <path id="path2" fill="#37528b" fill-rule="evenodd" stroke="none" d="M 607.416687 333.002899 C 620.935242 327.20929 628.874634 313.476135 628.874634 298.884735 C 628.874634 277.212158 611.493713 260.904083 590.035706 260.904083 L 531.026306 260.904083 L 531.026306 378.279205 L 531.026306 378.279205 L 531.026306 378.279205 L 562.998718 378.279205 L 562.998718 329.569611 L 604.197998 378.279205 L 645.826477 378.279205 L 607.416687 333.002899 Z M 581.023376 316.051117 L 562.998718 316.051117 L 562.998718 287.726563 L 581.023376 287.726563 C 590.464844 287.726563 596.687683 291.803619 596.687683 301.888824 C 596.687683 311.974091 590.250305 316.051117 581.023376 316.051117 Z"/>
            <path id="path3" fill="#edc83d" fill-rule="evenodd" stroke="none" d="M 116.887474 257.899994 L 181.261383 360.254547 L 247.13736 258.114594 L 116.887474 257.899994 L 116.887474 257.899994 Z"/>
            <path id="path4" fill="#37528b" fill-rule="evenodd" stroke="none" d="M 481.458405 260.904083 L 444.121521 260.904083 L 395.197327 378.279205 L 429.95929 378.279205 L 435.967468 363.258636 L 489.397858 363.258636 L 495.835236 378.279205 L 530.811768 378.279205 L 481.458405 260.904083 Z M 447.34021 336.006989 L 463.004547 299.313904 L 478.239716 336.006989 L 447.34021 336.006989 Z"/>
            <g id="g1">
                <path id="path5" fill="#37528b" stroke="none" d="M 760.841125 337.509064 C 758.909912 345.233948 753.116333 368.623138 728.225037 375.704224 C 718.783569 378.493805 708.054565 378.279205 698.398499 378.279205 L 649.474304 378.279205 L 649.474304 260.689575 L 689.386108 260.689575 C 694.536011 260.689575 699.900513 260.904083 705.050415 261.118683 C 720.714783 261.762482 735.091553 263.264496 746.893433 274.637238 C 754.618347 282.147552 762.7724 295.236847 762.7724 319.055206 C 762.5578 327.852997 761.484924 334.290375 760.841125 337.509064 Z M 714.492004 291.803619 C 711.058716 289.657837 708.269104 288.370331 700.75885 288.370331 L 686.811157 288.370331 L 686.811157 351.456757 L 700.973389 351.456757 C 705.050415 351.456757 708.054565 351.027557 711.702393 349.310974 C 725.435486 342.658966 725.220947 321.415588 725.220947 319.698975 C 725.220947 318.626099 725.435486 298.884735 714.492004 291.803619 Z"/>
                <path id="path6" fill="#37528b" stroke="none" d="M 877.572571 352.100464 C 869.418457 373.343903 848.17511 381.497925 827.146301 381.497925 C 822.854736 381.497925 811.267395 381.068726 799.465515 375.918823 C 794.530151 373.773041 782.513733 367.979431 776.934631 353.38797 C 774.788818 347.59436 773.930542 342.658966 773.930542 330.427979 L 773.930542 260.689575 L 811.267395 260.689575 L 811.267395 334.075775 C 811.267395 335.148682 811.052856 339.440277 812.340271 343.088165 C 815.344421 352.100464 824.57135 352.529663 827.36084 352.529663 C 829.935852 352.529663 839.16272 352.100464 842.596008 343.302765 C 843.668945 340.298584 843.668945 337.723663 843.668945 334.075775 L 843.668945 260.689575 L 881.220337 260.689575 L 881.220337 331.071686 C 881.220337 338.79657 880.147461 345.233948 877.572571 352.100464 Z"/>
                <path id="path7" fill="#37528b" stroke="none" d="M 1004.603699 378.493805 L 1005.032898 293.305634 L 981.643677 378.493805 L 953.962891 378.493805 L 930.788269 293.305634 L 931.002869 378.493805 L 895.597229 378.493805 L 895.597229 260.904083 L 948.812988 260.904083 L 967.910583 334.934082 L 986.793579 260.904083 L 1040.009399 260.904083 L 1040.009399 378.493805 L 1004.603699 378.493805 Z"/>
                <path id="path8" fill="#37528b" stroke="none" d="M 1162.963501 316.051117 C 1161.461426 320.128113 1155.453247 332.359192 1142.578491 337.294495 C 1135.497314 339.869476 1128.630859 340.298584 1121.335083 340.298584 L 1092.796021 340.298584 L 1092.796021 378.493805 L 1055.459106 378.493805 L 1055.459106 260.904083 L 1122.622559 260.904083 C 1134.209839 260.904083 1144.724243 261.762482 1153.951172 269.701874 C 1165.753052 279.78714 1166.182251 293.949432 1166.182251 299.099335 C 1165.753052 301.459717 1165.538452 308.970001 1162.963501 316.051117 Z M 1126.914185 292.232758 C 1123.266357 285.58075 1115.326782 285.58075 1113.39563 285.58075 L 1092.366821 285.58075 L 1092.366821 315.621918 L 1113.610229 315.621918 C 1114.039307 315.621918 1117.687256 315.407379 1120.262085 314.549011 C 1123.695435 313.476135 1128.845337 309.613708 1128.845337 300.38681 C 1128.845337 299.099335 1128.845337 295.666046 1126.914185 292.232758 Z"/>
            </g>
        </g>
    </g>
</svg>
